# Blender 4.2.3 LTS
# www.blender.org
o Cube.003
v 0.340355 -0.189614 0.170964
v 0.340355 0.148974 0.170964
v -0.132351 -0.220564 0.201116
v -0.136102 0.215565 0.201493
v -0.134227 -0.154438 0.201493
v -0.189252 -0.150372 0.201116
v -0.187376 -0.216497 0.201116
v 0.340355 -0.189614 0.000000
v 0.340355 0.148974 -0.000000
v -0.132351 -0.220564 0.000000
v -0.136102 0.215565 -0.000000
v -0.134227 -0.154438 0.000000
v -0.187376 -0.216497 0.000000
v -0.189252 -0.150373 0.000000
v -0.065096 -0.184714 0.257924
v -0.065096 0.255321 0.257924
v -0.065096 -0.184714 0.000000
v -0.065096 0.255321 -0.000000
v 0.043543 -0.159159 0.119054
v 0.043543 0.229767 0.119054
v 0.043544 -0.159159 0.000000
v 0.043543 0.229767 -0.000000
v 0.340355 -0.189614 -0.170965
v 0.340355 0.148974 -0.170965
v -0.132351 -0.220564 -0.201117
v -0.136102 0.215565 -0.201493
v -0.134227 -0.154439 -0.201493
v -0.189252 -0.150373 -0.201117
v -0.187376 -0.216497 -0.201117
v -0.065096 -0.184715 -0.257925
v -0.065096 0.255321 -0.257925
v 0.043544 -0.159159 -0.119055
v 0.043543 0.229767 -0.119055
v -0.219075 0.255321 0.257924
v -0.219075 -0.184714 0.257924
v -0.219075 -0.184714 0.000000
v -0.219075 0.255321 -0.000000
v -0.219075 0.255321 -0.257925
v -0.219075 -0.184715 -0.257925
v -0.204416 0.191546 -0.000000
v -0.204416 -0.120938 0.000000
v -0.204416 0.191546 0.194148
v -0.204416 -0.120938 0.194148
v -0.204416 0.191546 -0.194148
v -0.204416 -0.120938 -0.194148
v -0.204416 -0.120938 0.194148
v -0.219075 -0.135596 0.208806
v -0.219075 0.206204 0.208806
v -0.204416 0.191546 0.194148
v -0.204416 -0.120938 0.000000
v -0.219075 -0.135597 0.000000
v -0.219075 0.206204 -0.000000
v -0.204416 0.191546 -0.000000
v -0.219075 -0.135597 -0.208807
v -0.204416 -0.120938 -0.194148
v -0.204416 0.191546 -0.194148
v -0.219075 0.206204 -0.208807
v -0.001072 -0.228397 0.146850
v -0.001072 -0.101802 0.146850
v -0.104911 -0.228397 0.103838
v -0.104911 -0.101802 0.103838
v -0.147922 -0.228397 0.000000
v -0.147922 -0.101802 0.000000
v -0.104911 -0.228397 -0.103839
v -0.104911 -0.101802 -0.103839
v -0.001072 -0.228397 -0.146851
v -0.001072 -0.101802 -0.146851
v 0.102767 -0.228397 -0.103839
v 0.102767 -0.101802 -0.103839
v 0.145778 -0.228397 0.000000
v 0.145778 -0.101802 0.000000
v 0.102767 -0.228397 0.103838
v 0.102767 -0.101802 0.103838
v -0.155311 -0.120938 0.194148
v -0.155311 0.191546 0.194148
v -0.155311 -0.120938 0.000000
v -0.155311 0.191546 -0.000000
v -0.155311 -0.120938 -0.194148
v -0.155311 0.191546 -0.194148
v -0.200543 0.191546 -0.000000
v -0.200543 -0.120938 0.000000
v -0.187145 0.191546 0.194148
v -0.187145 -0.120938 0.194148
v -0.187145 0.191546 -0.194148
v -0.187145 -0.120938 -0.194148
v -0.212200 0.035304 -0.000000
v -0.195339 0.035304 0.194148
v -0.195339 0.035304 -0.194148
v -0.208906 -0.042818 0.000000
v -0.193137 -0.042818 0.194148
v -0.196790 -0.120938 0.097074
v -0.196790 0.191546 0.097074
v -0.193137 -0.042818 -0.194148
v -0.196790 -0.120938 -0.097074
v -0.196790 0.191546 -0.097074
v -0.208906 0.113424 -0.000000
v -0.193137 0.113424 0.194148
v -0.193137 0.113424 -0.194148
v -0.207255 0.035304 -0.097074
v -0.207256 0.035304 0.097074
v -0.204394 -0.042818 0.097074
v -0.204394 -0.042818 -0.097074
v -0.204394 0.113424 -0.097074
v -0.204394 0.113424 0.097074
v -0.205215 -0.081878 0.000000
v -0.190534 -0.081878 0.194148
v -0.192502 -0.120938 0.145611
v -0.199575 0.191546 0.048537
v -0.190534 -0.081878 -0.194148
v -0.192502 -0.120938 -0.145611
v -0.199575 0.191546 -0.048537
v -0.211329 0.074364 -0.000000
v -0.194778 0.074364 0.194148
v -0.194778 0.074364 -0.194148
v -0.201895 0.035304 -0.145611
v -0.210873 0.035304 0.048537
v -0.211329 -0.003757 0.000000
v -0.194778 -0.003757 0.194148
v -0.199575 -0.120938 0.048537
v -0.192502 0.191546 0.145611
v -0.194778 -0.003757 -0.194148
v -0.199575 -0.120938 -0.048537
v -0.192502 0.191546 -0.145611
v -0.205215 0.152484 -0.000000
v -0.190534 0.152484 0.194148
v -0.190534 0.152484 -0.194148
v -0.210873 0.035304 -0.048537
v -0.201895 0.035304 0.145611
v -0.207727 -0.042818 0.048537
v -0.199357 -0.042818 0.145611
v -0.201068 -0.081878 0.097074
v -0.206521 -0.003757 0.097074
v -0.206521 -0.003757 -0.097074
v -0.201067 -0.081878 -0.097074
v -0.199357 -0.042818 -0.145611
v -0.207727 -0.042818 -0.048537
v -0.201067 0.152484 -0.097074
v -0.206521 0.074364 -0.097074
v -0.199357 0.113424 -0.145611
v -0.207727 0.113424 -0.048537
v -0.207727 0.113424 0.048537
v -0.199357 0.113424 0.145611
v -0.206521 0.074364 0.097074
v -0.201068 0.152484 0.097074
v -0.196372 0.152484 0.145611
v -0.201247 0.074364 0.145611
v -0.210056 0.074364 0.048537
v -0.210056 0.074364 -0.048537
v -0.201247 0.074364 -0.145611
v -0.196372 0.152484 -0.145611
v -0.204141 -0.081878 -0.048537
v -0.196372 -0.081878 -0.145611
v -0.201247 -0.003757 -0.145611
v -0.201247 -0.003757 0.145611
v -0.196372 -0.081878 0.145611
v -0.204141 -0.081878 0.048537
v -0.210056 -0.003757 0.048537
v -0.210056 -0.003757 -0.048537
v -0.204141 0.152484 -0.048537
v -0.204141 0.152484 0.048537
vn 1.0000 -0.0000 -0.0000
vn 0.0641 -0.0002 0.9979
vn -1.0000 -0.0051 -0.0000
vn -0.0737 -0.9973 -0.0000
vn -0.0036 -0.0030 1.0000
vn 0.0737 0.9973 -0.0000
vn -0.9996 -0.0284 -0.0000
vn 0.1384 0.9904 -0.0000
vn 0.0653 -0.9979 -0.0000
vn 0.2290 0.9734 -0.0000
vn -0.0000 -0.0000 1.0000
vn -0.0000 1.0000 -0.0000
vn -0.0000 -1.0000 -0.0000
vn -0.0000 -0.0000 -0.0000
vn 0.7876 -0.0000 0.6162
vn 0.2290 -0.9734 -0.0000
vn 0.0641 -0.0002 -0.9979
vn -0.0036 -0.0029 -1.0000
vn -0.0000 -0.0000 -1.0000
vn -1.0000 -0.0000 -0.0000
vn 0.7876 -0.0000 -0.6162
vn -0.7071 -0.0000 -0.7071
vn -0.7071 0.7071 -0.0000
vn -0.7071 -0.7071 -0.0000
vn -0.7071 -0.0000 0.7071
vn -0.3827 -0.0000 0.9239
vn -0.9239 -0.0000 0.3827
vn -0.9239 -0.0000 -0.3827
vn -0.3827 -0.0000 -0.9239
vn 0.3827 -0.0000 -0.9239
vn 0.9239 -0.0000 -0.3827
vn 0.9239 -0.0000 0.3827
vn 0.3827 -0.0000 0.9239
vn -0.9929 0.1174 0.0209
vn -0.9929 0.1174 -0.0209
vn -0.9994 -0.0216 -0.0268
vn -0.9994 -0.0216 0.0268
vn -0.9954 -0.0927 0.0231
vn -0.9918 -0.0801 0.0994
vn -0.9939 -0.0176 0.1089
vn -0.9939 -0.0176 -0.1089
vn -0.9918 -0.0801 -0.0994
vn -0.9954 -0.0927 -0.0231
vn -0.9904 0.1033 -0.0917
vn -0.9931 0.0511 -0.1055
vn -0.9978 0.0607 -0.0252
vn -0.9978 0.0607 0.0252
vn -0.9931 0.0511 0.1055
vn -0.9904 0.1033 0.0917
vn -0.9918 0.0801 0.0994
vn -0.9899 0.0708 0.1230
vn -0.9892 0.0919 0.1141
vn -0.9939 0.0176 0.1089
vn -0.9910 0.0153 0.1330
vn -0.9906 0.0448 0.1295
vn -0.9994 0.0216 0.0268
vn -0.9971 0.0198 0.0735
vn -0.9959 0.0568 0.0705
vn -0.9959 0.0568 -0.0705
vn -0.9971 0.0198 -0.0735
vn -0.9994 0.0216 -0.0268
vn -0.9906 0.0448 -0.1295
vn -0.9910 0.0153 -0.1330
vn -0.9939 0.0176 -0.1089
vn -0.9892 0.0919 -0.1141
vn -0.9899 0.0708 -0.1230
vn -0.9918 0.0801 -0.0994
vn -0.9940 -0.0880 -0.0656
vn -0.9919 -0.1123 -0.0599
vn -0.9929 -0.1174 -0.0209
vn -0.9899 -0.0708 -0.1230
vn -0.9892 -0.0919 -0.1141
vn -0.9904 -0.1033 -0.0917
vn -0.9910 -0.0153 -0.1330
vn -0.9906 -0.0448 -0.1295
vn -0.9931 -0.0511 -0.1055
vn -0.9931 -0.0511 0.1055
vn -0.9906 -0.0448 0.1295
vn -0.9910 -0.0153 0.1330
vn -0.9904 -0.1033 0.0917
vn -0.9892 -0.0919 0.1141
vn -0.9899 -0.0708 0.1230
vn -0.9929 -0.1174 0.0209
vn -0.9919 -0.1123 0.0599
vn -0.9940 -0.0879 0.0656
vn -0.9978 -0.0607 0.0252
vn -0.9959 -0.0568 0.0705
vn -0.9971 -0.0198 0.0735
vn -0.9971 -0.0198 -0.0735
vn -0.9959 -0.0568 -0.0705
vn -0.9978 -0.0607 -0.0252
vn -0.9919 0.1123 -0.0599
vn -0.9940 0.0880 -0.0656
vn -0.9954 0.0927 -0.0231
vn -0.9954 0.0927 0.0231
vn -0.9940 0.0879 0.0656
vn -0.9919 0.1123 0.0599
vt 0.922029 0.399753
vt 0.734907 0.399753
vt 0.734907 0.305268
vt 0.922029 0.305268
vt 0.189408 0.297118
vt 0.004086 0.271228
vt 0.004086 0.005191
vt 0.206460 0.034510
vt 0.242509 0.040596
vt 0.708508 0.690221
vt 0.708508 0.801578
vt 0.504023 0.801578
vt 0.504023 0.690221
vt 0.115234 0.567011
vt 0.226382 0.567011
vt 0.226382 0.597305
vt 0.115234 0.597305
vt 0.208441 0.004086
vt 0.244491 0.010169
vt 0.960693 0.305268
vt 0.960693 0.416625
vt 0.930200 0.416625
vt 0.930200 0.305477
vt 0.221505 0.827773
vt 0.184959 0.827773
vt 0.184959 0.716625
vt 0.221505 0.716625
vt 0.726735 0.305268
vt 0.709864 0.570694
vt 0.615379 0.570694
vt 0.615379 0.305268
vt 0.209718 0.305289
vt 0.115234 0.305289
vt 0.801500 0.721409
vt 0.801500 0.578865
vt 0.862483 0.655613
vt 0.862483 0.721409
vt 0.870654 0.822054
vt 0.870654 0.578865
vt 0.955747 0.578865
vt 0.955747 0.822054
vt 0.716679 0.578865
vt 0.716679 0.721409
vt 0.313223 0.598527
vt 0.398252 0.598527
vt 0.398252 0.741071
vt 0.313223 0.741071
vt 0.234553 0.305289
vt 0.481728 0.447812
vt 0.266786 0.447812
vt 0.266786 0.382016
vt 0.481728 0.382016
vt 0.252662 0.305268
vt 0.495851 0.305268
vt 0.252662 0.741071
vt 0.252662 0.675275
vt 0.922029 0.494237
vt 0.734907 0.494237
vt 0.307745 0.297097
vt 0.254644 0.040596
vt 0.290694 0.034511
vt 0.493068 0.005190
vt 0.493068 0.271205
vt 0.504023 0.578865
vt 0.708508 0.578865
vt 0.004086 0.597305
vt 0.004086 0.567011
vt 0.252662 0.010169
vt 0.288712 0.004086
vt 0.960693 0.527981
vt 0.930200 0.527773
vt 0.221505 0.605477
vt 0.184959 0.605477
vt 0.504023 0.305268
vt 0.520894 0.570694
vt 0.020749 0.305289
vt 0.862483 0.787205
vt 0.801500 0.863953
vt 0.491517 0.841716
vt 0.406423 0.841716
vt 0.406423 0.598527
vt 0.491517 0.598527
vt 0.716679 0.863953
vt 0.313223 0.883615
vt 0.398252 0.883615
vt 0.717283 0.031231
vt 0.528385 0.031231
vt 0.501239 0.004086
vt 0.744428 0.004086
vt 0.481728 0.513608
vt 0.266786 0.513608
vt 0.252662 0.590356
vt 0.495851 0.590356
vt 0.252662 0.806867
vt 0.528385 0.262028
vt 0.717283 0.262028
vt 0.744428 0.289173
vt 0.501239 0.289173
vt 0.717283 0.146629
vt 0.744428 0.146629
vt 0.528385 0.146629
vt 0.501239 0.146629
vt 0.536493 0.253927
vt 0.709189 0.253927
vt 0.709189 0.146629
vt 0.536493 0.146629
vt 0.709189 0.039332
vt 0.536493 0.039332
vt 0.830768 0.219865
vt 0.900731 0.219864
vt 0.900719 0.277003
vt 0.830755 0.277003
vt 0.752599 0.162235
vt 0.822563 0.162235
vt 0.822584 0.219622
vt 0.752620 0.219622
vt 0.822563 0.277009
vt 0.752599 0.277009
vt 0.074060 0.943012
vt 0.004096 0.943012
vt 0.004086 0.885837
vt 0.074049 0.885837
vt 0.004096 0.828242
vt 0.074060 0.828242
vt 0.152195 0.943016
vt 0.082231 0.943016
vt 0.082231 0.885629
vt 0.152195 0.885629
vt 0.653567 0.915980
vt 0.609766 0.959780
vt 0.547823 0.959638
vt 0.504023 0.915636
vt 0.504023 0.853550
vt 0.547823 0.809749
vt 0.609766 0.809892
vt 0.653567 0.853894
vt 0.082231 0.828242
vt 0.152195 0.828242
vt 0.830755 0.162235
vt 0.900719 0.162234
vt 0.858563 0.004086
vt 0.902455 0.047977
vt 0.902455 0.110085
vt 0.858563 0.154028
vt 0.796491 0.154063
vt 0.752599 0.110172
vt 0.752599 0.048064
vt 0.796491 0.004121
vt 0.991055 0.801631
vt 0.991055 0.974327
vt 0.963918 0.974326
vt 0.963918 0.801631
vt 0.991035 0.578865
vt 0.991035 0.686162
vt 0.963918 0.686162
vt 0.963918 0.578865
vt 0.991035 0.793459
vt 0.963918 0.793459
vt 0.968864 0.519863
vt 0.968864 0.412566
vt 0.995914 0.412566
vt 0.995914 0.519863
vt 0.661738 0.809749
vt 0.688875 0.809749
vt 0.688875 0.982445
vt 0.661738 0.982445
vt 0.968864 0.305268
vt 0.995914 0.305268
vt 0.155203 0.685949
vt 0.176787 0.685949
vt 0.176788 0.712774
vt 0.155203 0.712774
vt 0.155203 0.739598
vt 0.176787 0.739598
vt 0.068858 0.739598
vt 0.068858 0.712774
vt 0.090446 0.712774
vt 0.090445 0.739598
vt 0.068858 0.685949
vt 0.090445 0.685949
vt 0.025681 0.685949
vt 0.047270 0.685949
vt 0.047270 0.712774
vt 0.025681 0.712774
vt 0.025677 0.632301
vt 0.047266 0.632301
vt 0.047268 0.659125
vt 0.025679 0.659125
vt 0.068853 0.632301
vt 0.090441 0.632301
vt 0.090443 0.659125
vt 0.068856 0.659125
vt 0.068853 0.793247
vt 0.068856 0.766422
vt 0.090443 0.766422
vt 0.090441 0.793247
vt 0.025677 0.793247
vt 0.025679 0.766422
vt 0.047268 0.766422
vt 0.047266 0.793247
vt 0.025681 0.739598
vt 0.047270 0.739598
vt 0.155199 0.793247
vt 0.155201 0.766422
vt 0.176786 0.766422
vt 0.176784 0.793247
vt 0.112027 0.793247
vt 0.112030 0.766422
vt 0.133616 0.766422
vt 0.133613 0.793247
vt 0.112032 0.739598
vt 0.112032 0.712774
vt 0.133618 0.712774
vt 0.133618 0.739598
vt 0.112032 0.685949
vt 0.133618 0.685949
vt 0.112027 0.632301
vt 0.133613 0.632301
vt 0.133616 0.659125
vt 0.112030 0.659125
vt 0.155199 0.632301
vt 0.176784 0.632301
vt 0.176786 0.659125
vt 0.155201 0.659125
vt 0.133610 0.605476
vt 0.155196 0.605476
vt 0.176781 0.605476
vt 0.090438 0.605476
vt 0.112024 0.605476
vt 0.112024 0.820071
vt 0.133610 0.820071
vt 0.090438 0.820071
vt 0.155196 0.820071
vt 0.176781 0.820071
vt 0.004090 0.766422
vt 0.004092 0.739598
vt 0.004092 0.712774
vt 0.025674 0.820071
vt 0.047262 0.820071
vt 0.004086 0.820071
vt 0.004088 0.793247
vt 0.068850 0.820071
vt 0.047262 0.605476
vt 0.068850 0.605476
vt 0.004088 0.632301
vt 0.004090 0.659125
vt 0.004086 0.605476
vt 0.025674 0.605476
vt 0.004092 0.685949
s 1
f 8/1/1 9/2/1 2/3/1 1/4/1
f 1/5/2 2/6/2 4/7/2 5/8/2 3/9/2
f 12/10/3 5/11/3 4/12/3 11/13/3
f 10/14/4 3/15/4 7/16/4 13/17/4
f 3/9/5 5/8/5 6/18/5 7/19/5
f 5/20/6 12/21/6 14/22/6 6/23/6
f 7/24/7 6/25/7 14/26/7 13/27/7
f 4/28/8 2/29/8 9/30/8 11/31/8
f 1/32/9 3/15/9 10/14/9 8/33/9
f 18/34/10 16/35/10 20/36/10 22/37/10
f 15/38/11 16/39/11 34/40/11 35/41/11
f 34/42/12 16/35/12 18/34/12 37/43/12
f 15/44/13 35/45/13 36/46/13 17/47/13
f 49/48/14 53/48/14 40/48/14 42/48/14
f 21/49/1 22/50/1 20/51/1 19/52/1
f 16/53/15 15/54/15 19/52/15 20/51/15
f 15/44/16 17/47/16 21/55/16 19/56/16
f 8/1/1 23/57/1 24/58/1 9/2/1
f 23/59/17 25/60/17 27/61/17 26/62/17 24/63/17
f 12/10/3 11/13/3 26/64/3 27/65/3
f 10/14/4 13/17/4 29/66/4 25/67/4
f 25/60/18 29/68/18 28/69/18 27/61/18
f 27/70/6 28/71/6 14/22/6 12/21/6
f 29/72/7 13/27/7 14/26/7 28/73/7
f 26/74/8 11/31/8 9/30/8 24/75/8
f 23/76/9 8/33/9 10/14/9 25/67/9
f 18/34/10 22/37/10 33/77/10 31/78/10
f 30/79/19 39/80/19 38/81/19 31/82/19
f 38/83/12 37/43/12 18/34/12 31/78/12
f 30/84/13 17/47/13 36/46/13 39/85/13
f 54/86/20 57/87/20 38/88/20 39/89/20
f 21/49/1 32/90/1 33/91/1 22/50/1
f 31/92/21 33/91/21 32/90/21 30/93/21
f 30/84/16 32/94/16 21/55/16 17/47/16
f 50/48/14 46/48/14 43/48/14 41/48/14
f 48/95/20 47/96/20 35/97/20 34/98/20
f 55/48/14 50/48/14 41/48/14 45/48/14
f 53/48/14 56/48/14 44/48/14 40/48/14
f 56/48/11 55/48/11 45/48/11 44/48/11
f 51/99/20 54/86/20 39/89/20 36/100/20
f 52/101/20 48/95/20 34/98/20 37/102/20
f 47/96/20 51/99/20 36/100/20 35/97/20
f 57/87/20 52/101/20 37/102/20 38/88/20
f 49/103/22 46/104/22 47/96/22 48/95/22
f 51/99/23 47/96/23 46/104/23 50/105/23
f 48/95/24 52/101/24 53/106/24 49/103/24
f 57/87/25 54/86/25 55/107/25 56/108/25
f 50/105/23 55/107/23 54/86/23 51/99/23
f 56/108/24 53/106/24 52/101/24 57/87/24
f 46/48/11 49/48/11 42/48/11 43/48/11
f 58/109/26 59/110/26 61/111/26 60/112/26
f 60/113/27 61/114/27 63/115/27 62/116/27
f 62/116/28 63/115/28 65/117/28 64/118/28
f 64/119/29 65/120/29 67/121/29 66/122/29
f 66/122/30 67/121/30 69/123/30 68/124/30
f 68/125/31 69/126/31 71/127/31 70/128/31
f 61/129/12 59/130/12 73/131/12 71/132/12 69/133/12 67/134/12 65/135/12 63/136/12
f 70/128/32 71/127/32 73/137/32 72/138/32
f 72/139/33 73/140/33 59/110/33 58/109/33
f 58/141/13 60/142/13 62/143/13 64/144/13 66/145/13 68/146/13 70/147/13 72/148/13
f 56/149/11 55/150/11 78/151/11 79/152/11
f 49/153/13 53/154/13 77/155/13 75/156/13
f 53/154/13 56/157/13 79/158/13 77/155/13
f 55/159/12 50/160/12 76/161/12 78/162/12
f 49/163/19 75/164/19 74/165/19 46/166/19
f 50/160/12 46/167/12 74/168/12 76/161/12
f 160/169/34 108/170/34 80/171/34 124/172/34
f 159/173/35 124/172/35 80/171/35 111/174/35
f 158/175/36 117/176/36 86/177/36 127/178/36
f 157/179/37 116/180/37 86/177/37 117/176/37
f 156/181/38 129/182/38 89/183/38 105/184/38
f 155/185/39 130/186/39 101/187/39 131/188/39
f 154/189/40 128/190/40 100/191/40 132/192/40
f 153/193/41 133/194/41 99/195/41 115/196/41
f 152/197/42 134/198/42 102/199/42 135/200/42
f 151/201/43 105/184/43 89/183/43 136/202/43
f 150/203/44 137/204/44 95/205/44 123/206/44
f 149/207/45 138/208/45 103/209/45 139/210/45
f 148/211/46 112/212/46 96/213/46 140/214/46
f 147/215/47 141/216/47 96/213/47 112/212/47
f 146/217/48 142/218/48 104/219/48 143/220/48
f 145/221/49 120/222/49 92/223/49 144/224/49
f 142/218/50 145/221/50 144/224/50 104/219/50
f 97/225/51 125/226/51 145/221/51 142/218/51
f 125/226/52 82/227/52 120/222/52 145/221/52
f 128/190/53 146/217/53 143/220/53 100/191/53
f 87/228/54 113/229/54 146/217/54 128/190/54
f 113/229/55 97/225/55 142/218/55 146/217/55
f 116/180/56 147/215/56 112/212/56 86/177/56
f 100/191/57 143/220/57 147/215/57 116/180/57
f 143/220/58 104/219/58 141/216/58 147/215/58
f 138/208/59 148/211/59 140/214/59 103/209/59
f 99/195/60 127/178/60 148/211/60 138/208/60
f 127/178/61 86/177/61 112/212/61 148/211/61
f 114/230/62 149/207/62 139/210/62 98/231/62
f 88/232/63 115/196/63 149/207/63 114/230/63
f 115/196/64 99/195/64 138/208/64 149/207/64
f 126/233/65 150/203/65 123/206/65 84/234/65
f 98/231/66 139/210/66 150/203/66 126/233/66
f 139/210/67 103/209/67 137/204/67 150/203/67
f 134/198/68 151/201/68 136/202/68 102/199/68
f 94/235/69 122/236/69 151/201/69 134/198/69
f 122/236/70 81/237/70 105/184/70 151/201/70
f 109/238/71 152/197/71 135/200/71 93/239/71
f 85/240/72 110/241/72 152/197/72 109/238/72
f 110/241/73 94/235/73 134/198/73 152/197/73
f 121/242/74 153/193/74 115/196/74 88/232/74
f 93/239/75 135/200/75 153/193/75 121/242/75
f 135/200/76 102/199/76 133/194/76 153/193/76
f 130/186/77 154/189/77 132/192/77 101/187/77
f 90/243/78 118/244/78 154/189/78 130/186/78
f 118/244/79 87/228/79 128/190/79 154/189/79
f 107/245/80 155/185/80 131/188/80 91/246/80
f 83/247/81 106/248/81 155/185/81 107/245/81
f 106/248/82 90/243/82 130/186/82 155/185/82
f 119/249/83 156/181/83 105/184/83 81/237/83
f 91/246/84 131/188/84 156/181/84 119/249/84
f 131/188/85 101/187/85 129/182/85 156/181/85
f 129/182/86 157/179/86 117/176/86 89/183/86
f 101/187/87 132/192/87 157/179/87 129/182/87
f 132/192/88 100/191/88 116/180/88 157/179/88
f 133/194/89 158/175/89 127/178/89 99/195/89
f 102/199/90 136/202/90 158/175/90 133/194/90
f 136/202/91 89/183/91 117/176/91 158/175/91
f 137/204/92 159/173/92 111/174/92 95/205/92
f 103/209/93 140/214/93 159/173/93 137/204/93
f 140/214/94 96/213/94 124/172/94 159/173/94
f 141/216/95 160/169/95 124/172/95 96/213/95
f 104/219/96 144/224/96 160/169/96 141/216/96
f 144/224/97 92/223/97 108/170/97 160/169/97
